#!OML:ASF F:\twosubjects\two\wednesday\Session 1\rory1.ASF
:FULLY-SPECIFIED
:DEGREES
322
root 8.56844 18.7249 9.97776 -174.119 9.60211 177.338
lowerback 1.65513 3.40066 -1.86542
upperback 1.51657 4.63503 -2.54057
thorax 0.694403 2.36052 -1.60619
lowerneck -8.9328 -3.04807 -5.12925
upperneck 12.4736 -4.39403 5.62505
head 5.46017 -2.09172 2.26627
rclavicle 1.5207e-014 9.14409e-015
rhumerus -26.6152 8.97648 -76.2917
rradius 136.739
rwrist -13.1614
rhand -8.67418 40.2748
rfingers 7.12502
rthumb 17.2601 11.0213
lclavicle 1.5207e-014 9.14409e-015
lhumerus -39.4718 1.99712 78.6009
lradius 139.234
lwrist 25.7713
lhand -21.1047 12.7853
lfingers 7.12502
lthumb 5.27321 42.6997
rfemur -11.9818 15.2962 10.1191
rtibia 21.7654
rfoot -10.1989 -10.7232
rtoes -0.329424
lfemur -8.82567 1.64414 -19.6606
ltibia 20.4975
lfoot -15.2657 7.72126
ltoes -8.53137
323
root 8.53262 18.7066 9.95291 -174.49 11.3476 177.113
lowerback 1.53801 3.89524 -1.57874
upperback 1.71478 5.33062 -2.83708
thorax 1.0289 2.72092 -2.05475
lowerneck -8.90711 -3.06056 -5.21947
upperneck 12.2267 -4.39532 5.759
head 5.38416 -2.0849 2.32391
rclavicle 2.36057e-014 -3.97569e-015
rhumerus -25.2586 9.99284 -75.2232
rradius 136.029
rwrist -12.1476
rhand -8.89517 40.2327
rfingers 7.12502
rthumb 17.0473 10.9607
lclavicle 2.36057e-014 -3.97569e-015
lhumerus -39.2721 0.0228568 77.3038
lradius 138.794
lwrist 25.3974
lhand -22.7351 14.3241
lfingers 7.12502
lthumb 3.69889 44.2717
rfemur -12.3512 15.9975 9.53829
rtibia 22.2677
rfoot -10.3274 -9.85654
rtoes -1.39887
lfemur -8.39499 1.69511 -20.2742
ltibia 20.8553
lfoot -16.2847 8.98135
ltoes -7.21328
324
root 8.5066 18.6899 9.94695 -174.681 12.7672 177.083
lowerback 1.51553 4.32811 -1.2491
upperback 1.78326 5.92556 -3.02327
thorax 1.18048 3.02819 -2.42222
lowerneck -8.66899 -3.06467 -5.52515
upperneck 11.8398 -4.40716 6.22143
head 5.24109 -2.07795 2.52178
rclavicle -6.65432e-014 4.29375e-014
rhumerus -24.0267 11.0082 -73.9954
rradius 135.159
rwrist -11.3053
rhand -10.1403 40.4356
rfingers 7.12502
rthumb 15.8485 11.0643
lclavicle -6.65432e-014 4.29375e-014
lhumerus -38.6104 0.00888315 74.3495
lradius 137.273
lwrist 21.0677
lhand -15.2871 11.1462
lfingers 7.12502
lthumb 10.8879 40.8439
rfemur -12.8395 16.5982 9.23723
rtibia 22.764
rfoot -10.5511 -9.2794
rtoes -1.66689
lfemur -8.18303 1.94795 -20.5629
ltibia 21.1106
lfoot -16.889 9.7634
ltoes -6.65508
325
root 8.48361 18.6876 9.95657 -174.563 13.7357 177.148
lowerback 1.43653 4.64096 -0.785043
upperback 1.71535 6.35397 -3.2469
thorax 1.24567 3.25252 -2.90069
lowerneck -8.50851 -3.02927 -5.57467
upperneck 11.5593 -4.37148 6.44983
head 5.13094 -2.05098 2.60645
rclavicle -1.56046e-014 7.95139e-015
rhumerus -22.7958 11.8752 -72.7197
rradius 134.157
rwrist -10.4404
rhand -10.3741 40.7667
rfingers 7.12502
rthumb 15.6234 11.3776
lclavicle -1.56046e-014 7.95139e-015
lhumerus -38.0406 -1.46704 72.2562
lradius 136.618
lwrist 19.5052
lhand -16.3432 11.0143
lfingers 7.12502
lthumb 9.86906 40.763
rfemur -13.5736 16.9957 9.05671
rtibia 23.2201
rfoot -10.7097 -8.8542
rtoes -1.53338
lfemur -8.36364 2.38651 -20.6245
ltibia 21.2696
lfoot -17.2331 9.87299
ltoes -4.71217
326
root 8.46318 18.6861 9.96385 -174.64 14.7023 176.874
lowerback 1.41454 4.93692 -0.665128
upperback 1.74992 6.77683 -3.57502
thorax 1.36819 3.47843 -3.29528
lowerneck -8.49613 -3.01835 -5.41684
upperneck 11.2428 -4.35281 6.47416
head 5.0274 -2.03102 2.59006
rclavicle -5.82439e-014 3.89618e-014
rhumerus -21.3889 12.6728 -71.4343
rradius 133.1
rwrist -9.82807
rhand -9.27782 41.4159
rfingers 7.12502
rthumb 16.679 12.1124
lclavicle -5.82439e-014 3.89618e-014
lhumerus -37.2579 -3.02737 70.0694
lradius 135.867
lwrist 17.8132
lhand -17.9387 10.7114
lfingers 7.12502
lthumb 8.32952 40.5272
rfemur -14.1948 17.4362 8.55791
rtibia 23.7631
rfoot -10.8275 -8.40728
rtoes -1.73805
lfemur -8.44886 2.96308 -21.0374
ltibia 21.4815
lfoot -17.556 9.94571
ltoes -3.84918
327
root 8.4493 18.6755 9.97975 -174.8 15.6233 176.617
lowerback 1.67451 5.15862 -0.592074
upperback 1.71876 7.08887 -3.87401
thorax 1.25622 3.64699 -3.66737
lowerneck -8.53192 -2.98601 -5.37009
upperneck 11.1606 -4.31515 6.53931
head 5.00627 -2.00561 2.60521
rclavicle 8.45829e-014 -4.41302e-014
rhumerus -20.0646 13.5728 -70.1198
rradius 132.09
rwrist -9.35695
rhand -9.63516 41.8097
rfingers 7.12502
rthumb 16.335 12.4776
lclavicle 8.45829e-014 -4.41302e-014
lhumerus -36.5423 -4.53363 67.898
lradius 135.069
lwrist 16.4066
lhand -19.2756 10.703
lfingers 7.12502
lthumb 7.03912 40.566
rfemur -14.7651 17.8635 8.14365
rtibia 24.3847
rfoot -10.9395 -8.05407
rtoes -2.2666
lfemur -8.47417 3.57024 -21.3937
ltibia 21.7423
lfoot -17.6587 10.1217
ltoes -4.77734
328
root 8.43934 18.6621 10.0124 -174.602 16.2278 176.552
lowerback 1.87752 5.28583 -0.392738
upperback 1.49678 7.2567 -4.12757
thorax 0.983125 3.73629 -4.07048
lowerneck -8.60971 -2.90981 -5.25034
upperneck 11.3156 -4.22836 6.4675
head 5.05774 -1.96217 2.5685
rclavicle -9.31306e-014 -3.26007e-014
rhumerus -18.8434 14.439 -68.8372
rradius 130.976
rwrist -9.07712
rhand -10.4038 41.6231
rfingers 7.12502
rthumb 15.5948 12.2318
lclavicle -9.31306e-014 -3.26007e-014
lhumerus -35.8606 -6.0883 65.6398
lradius 134.19
lwrist 15.2886
lhand -20.238 10.6721
lfingers 7.12502
lthumb 6.11002 40.564
rfemur -15.6886 18.0735 7.90032
rtibia 25.0831
rfoot -11.0552 -7.87593
rtoes -2.14878
lfemur -8.91438 4.01304 -21.4755
ltibia 22.027
lfoot -17.738 9.94095
ltoes -4.20454
329
root 8.43272 18.6445 10.0442 -174.429 16.6554 176.253
lowerback 1.84519 5.38452 -0.606083
upperback 1.39265 7.39828 -4.34469
thorax 0.906548 3.81137 -4.17958
lowerneck -8.84301 -2.86349 -4.93749
upperneck 11.4392 -4.1499 6.09458
head 5.11674 -1.92648 2.40375
rclavicle -6.11263e-014 -9.54166e-015
rhumerus -17.4238 15.1944 -67.4644
rradius 129.696
rwrist -9.15237
rhand -10.0974 41.4059
rfingers 7.12502
rthumb 15.8899 12.0379
lclavicle -6.11263e-014 -9.54166e-015
lhumerus -34.8625 -7.54108 63.4031
lradius 133.237
lwrist 14.6062
lhand -20.7005 10.5907
lfingers 7.12502
lthumb 5.66354 40.495
rfemur -16.6119 18.2074 7.41825
rtibia 25.8458
rfoot -11.272 -7.85698
rtoes -2.24475
lfemur -9.45571 4.44026 -21.7859
ltibia 22.3478
lfoot -17.7889 9.52792
ltoes -3.14064
330
root 8.4264 18.6242 10.0697 -174.588 16.9434 175.669
lowerback 2.06582 5.37983 -1.1167
upperback 1.33309 7.40122 -4.59046
thorax 0.692151 3.81904 -4.18167
lowerneck -8.91897 -2.8411 -4.75845
upperneck 11.4526 -4.11312 5.90182
head 5.12414 -1.9103 2.31606
rclavicle -7.04692e-014 2.78299e-015
rhumerus -16.1403 15.9617 -66.0641
rradius 128.392
rwrist -9.01807
rhand -10.6573 42.0991
rfingers 7.12502
rthumb 15.3506 12.6889
lclavicle -7.04692e-014 2.78299e-015
lhumerus -33.7881 -8.61819 61.1945
lradius 132.258
lwrist 14.3158
lhand -20.3552 10.8572
lfingers 7.12502
lthumb 5.99694 40.7524
rfemur -17.2469 18.3146 6.72846
rtibia 26.7376
rfoot -11.7198 -7.89004
rtoes -2.46269
lfemur -9.71852 4.83226 -22.3873
ltibia 22.6664
lfoot -17.7462 9.19803
ltoes -2.74479
